<svg data-v-fde0c5aa="" xmlns="http://www.w3.org/2000/svg" viewBox="0 0 300 300" class="iconLeft"><!----><defs data-v-fde0c5aa=""><!----></defs><rect data-v-fde0c5aa="" fill="#523880" x="0" y="0" width="300px" height="300px" class="logo-background-square"></rect><defs data-v-fde0c5aa=""><!----></defs><g data-v-fde0c5aa="" id="d65fbf68-fb8c-4f6f-9853-6dbb395c9a3b" fill="#FFFFFF" transform="matrix(3.2542017504108696,0,0,3.2542017504108696,110.92501373264312,123.57588293493973)"><path d="M2.94 13.30L2.94 3.78L0.84 3.78L0.84 13.30ZM10.93 9.80C10.93 8.12 10.26 6.99 8.61 6.99C7.80 6.99 7.14 7.35 6.72 7.88L6.72 7.13L4.62 7.13L4.62 13.30L6.72 13.30L6.72 10.22C6.72 9.38 7.24 8.68 7.90 8.68C8.55 8.68 8.83 9.07 8.83 9.80L8.83 13.30L10.93 13.30ZM18.61 7.13L16.48 7.13L15.01 11.54L13.54 7.13L11.42 7.13L13.78 13.30L16.25 13.30ZM22.48 11.84C21.35 11.84 21.04 11.02 21.04 10.23C21.04 9.46 21.38 8.64 22.48 8.64C23.58 8.64 23.91 9.46 23.91 10.23C23.91 11.02 23.60 11.84 22.48 11.84ZM22.48 7.00C20.55 7.00 18.96 8.29 18.96 10.22C18.96 12.19 20.51 13.43 22.48 13.43C24.44 13.43 26.00 12.19 26.00 10.22C26.00 8.29 24.40 7.00 22.48 7.00ZM29.43 13.30L29.43 2.80L27.33 2.80L27.33 13.30ZM33.01 9.48C33.01 9.48 33.08 8.33 34.40 8.33C35.67 8.33 35.77 9.48 35.77 9.48ZM37.79 10.08C37.79 8.11 36.23 6.99 34.36 6.99C32.28 6.99 30.76 8.29 30.76 10.22C30.76 12.18 32.23 13.44 34.36 13.44C35.99 13.44 37.31 12.63 37.67 11.00L35.53 11.00C35.52 11.45 35.06 11.94 34.31 11.94C33.49 11.94 32.98 11.19 32.98 10.47L37.77 10.47C37.77 10.35 37.79 10.21 37.79 10.08ZM42.29 11.84C41.16 11.84 40.85 11.02 40.85 10.23C40.85 9.46 41.19 8.64 42.29 8.64C43.39 8.64 43.72 9.46 43.72 10.23C43.72 11.02 43.41 11.84 42.29 11.84ZM42.29 7.00C40.36 7.00 38.77 8.29 38.77 10.22C38.77 12.19 40.32 13.43 42.29 13.43C44.25 13.43 45.81 12.19 45.81 10.22C45.81 8.29 44.21 7.00 42.29 7.00Z"></path></g><defs data-v-fde0c5aa=""><!----></defs><g data-v-fde0c5aa="" id="2744f6b6-3520-46cd-be73-c3b1dbc14a1e" stroke="none" fill="#757CCE" transform="matrix(0.7047092247063512,0,0,0.7047092247063512,214.75942510876928,-129.80479982025864)"><switch><g><path d="M-207.2 431.4c.4.9-.1 2-1 2.4-.2.1-.4.1-.7.1-.7 0-1.4-.4-1.7-1.2l-6-15.1c-.2-.5-2.3-4.4-5.5-5.6l-7.9-2.9c0 .3.1.6.4.9 1.9 2 5.8 4.6 5.8 4.6.8.6 1.1 1.7.5 2.5-.6.8-1.7 1.1-2.5.5-.2-.1-4.2-2.8-6.4-5.2-2.4-2.5-1.4-5.5-.1-7 .5-.5 1.3-.7 2-.5l9.4 3.5c4.8 1.8 7.5 7.3 7.6 7.5v.1l6.1 15.4zm-12.8-6.1c-.1-.5-.5-1-.9-1.2l-14.2-7.7c-1.3-.7-2.2-1.9-2.6-3.2l-6-20.3c.3.2.5.5.8.9 1.8 3.2 5.5 10.5 5.5 10.6.5.9 1.6 1.3 2.5.8.9-.5 1.3-1.6.8-2.5-.2-.3-3.8-7.5-5.6-10.7-1.9-3.5-5.3-3.5-7.2-2.7-.8.4-1.3 1.3-1 2.2l6.7 22.7c.7 2.3 2.3 4.3 4.4 5.4l13.5 7.3.7 3.2c.2.8.9 1.4 1.8 1.4h.4c1-.2 1.6-1.2 1.4-2.2l-1-4zm32.1-13.9l7.9-2.9c0 .3-.1.6-.4.9-1.9 2-5.8 4.6-5.8 4.6-.8.6-1.1 1.7-.5 2.5.6.8 1.7 1.1 2.5.5.2-.1 4.2-2.8 6.4-5.2 2.4-2.5 1.4-5.5.1-7-.5-.5-1.3-.7-2-.5l-9.4 3.5c-4.8 1.8-7.5 7.3-7.6 7.5v.1l-6 15.1c-.4.9.1 2 1 2.4.2.1.4.1.7.1.7 0 1.4-.4 1.7-1.2l6-15.1c.1-.1 2.2-4 5.4-5.3zm19.2 2.3l6.7-22.7c.3-.9-.2-1.8-1-2.2-1.8-.8-5.3-.8-7.2 2.7-1.8 3.2-5.4 10.4-5.6 10.7-.5.9-.1 2 .8 2.5s2 .1 2.5-.8c0-.1 3.8-7.4 5.5-10.6.2-.4.5-.7.8-.9l-6 20.3c-.4 1.4-1.4 2.6-2.6 3.2l-14.2 7.7c-.5.3-.8.7-.9 1.2l-1.1 4.7c-.2 1 .4 2 1.4 2.2h.4c.8 0 1.6-.6 1.8-1.4l.9-3.8 13.5-7.3c2-1.2 3.6-3.2 4.3-5.5zm-38.4-28.3h3.1c.8 0 1.5.7 1.5 1.5s-.7 1.5-1.5 1.5h-5.5c-1 0-1.8.8-1.8 1.8s.8 1.8 1.8 1.8h2.1v1.4c0 1 .8 1.8 1.8 1.8s1.8-.8 1.8-1.8V392c2.7-.2 4.9-2.4 4.9-5.2 0-2.9-2.3-5.2-5.2-5.2h-3.1c-.8 0-1.5-.7-1.5-1.5s.7-1.5 1.5-1.5h5.4c1 0 1.8-.8 1.8-1.8s-.8-1.8-1.8-1.8h-2v-1.4c0-1-.8-1.8-1.8-1.8s-1.8.8-1.8 1.8v1.4c-2.7.2-4.9 2.4-4.9 5.2 0 2.8 2.3 5.2 5.2 5.2zm1.4-17.5c1 0 1.8-.8 1.8-1.8V362c0-1-.8-1.8-1.8-1.8s-1.8.8-1.8 1.8v4.1c-.1 1 .7 1.8 1.8 1.8zm.4 31.5c-1 0-1.8.8-1.8 1.8v4.1c0 1 .8 1.8 1.8 1.8s1.8-.8 1.8-1.8v-4.1c0-1-.8-1.8-1.8-1.8zm-21.9-13.7h4.1c1 0 1.8-.8 1.8-1.8s-.8-1.8-1.8-1.8h-4.1c-1 0-1.8.8-1.8 1.8s.8 1.8 1.8 1.8zm37.5-2.3c0 1 .8 1.8 1.8 1.8h4.1c1 0 1.8-.8 1.8-1.8s-.8-1.8-1.8-1.8h-4.1c-1 0-1.8.8-1.8 1.8zm-29.8-11c.4.4.8.5 1.3.5s.9-.2 1.3-.5c.7-.7.7-1.9 0-2.6l-2.8-2.8c-.7-.7-1.9-.7-2.6 0-.7.7-.7 1.9 0 2.6l2.8 2.8zm25.4 22.3c-.7.7-.7 1.9 0 2.6l2.8 2.8c.4.4.8.5 1.3.5s.9-.2 1.3-.5c.7-.7.7-1.9 0-2.6l-2.8-2.8c-.7-.7-1.9-.7-2.6 0zm-25.1.3l-2.8 2.8c-.7.7-.7 1.9 0 2.6.4.4.8.5 1.3.5s.9-.2 1.3-.5l2.8-2.8c.7-.7.7-1.9 0-2.6-.8-.7-1.9-.7-2.6 0zm27.6-28.2l-2.8 2.8c-.7.7-.7 1.9 0 2.6.4.4.8.5 1.3.5s.9-.2 1.3-.5l2.8-2.8c.7-.7.7-1.9 0-2.6-.7-.7-1.9-.7-2.6 0z"></path></g></switch></g><!----></svg>