<svg data-v-423bf9ae="" xmlns="http://www.w3.org/2000/svg" viewBox="0 0 253.59024699449162 60" class="font"><!----><!----><!----><g data-v-423bf9ae="" id="2515ed86-68e4-4d1f-8bfd-5e81589c0b4f" fill="black" transform="matrix(5.639098067841383,0,0,5.639098067841383,-4.736842127711981,-15.789473605806982)"><path d="M2.94 13.30L2.94 3.78L0.84 3.78L0.84 13.30ZM10.93 9.80C10.93 8.12 10.26 6.99 8.61 6.99C7.80 6.99 7.14 7.35 6.72 7.88L6.72 7.13L4.62 7.13L4.62 13.30L6.72 13.30L6.72 10.22C6.72 9.38 7.24 8.68 7.90 8.68C8.55 8.68 8.83 9.07 8.83 9.80L8.83 13.30L10.93 13.30ZM18.61 7.13L16.48 7.13L15.01 11.54L13.54 7.13L11.42 7.13L13.78 13.30L16.25 13.30ZM22.48 11.84C21.35 11.84 21.04 11.02 21.04 10.23C21.04 9.46 21.38 8.64 22.48 8.64C23.58 8.64 23.91 9.46 23.91 10.23C23.91 11.02 23.60 11.84 22.48 11.84ZM22.48 7.00C20.55 7.00 18.96 8.29 18.96 10.22C18.96 12.19 20.51 13.43 22.48 13.43C24.44 13.43 26.00 12.19 26.00 10.22C26.00 8.29 24.40 7.00 22.48 7.00ZM29.43 13.30L29.43 2.80L27.33 2.80L27.33 13.30ZM33.01 9.48C33.01 9.48 33.08 8.33 34.40 8.33C35.67 8.33 35.77 9.48 35.77 9.48ZM37.79 10.08C37.79 8.11 36.23 6.99 34.36 6.99C32.28 6.99 30.76 8.29 30.76 10.22C30.76 12.18 32.23 13.44 34.36 13.44C35.99 13.44 37.31 12.63 37.67 11.00L35.53 11.00C35.52 11.45 35.06 11.94 34.31 11.94C33.49 11.94 32.98 11.19 32.98 10.47L37.77 10.47C37.77 10.35 37.79 10.21 37.79 10.08ZM42.29 11.84C41.16 11.84 40.85 11.02 40.85 10.23C40.85 9.46 41.19 8.64 42.29 8.64C43.39 8.64 43.72 9.46 43.72 10.23C43.72 11.02 43.41 11.84 42.29 11.84ZM42.29 7.00C40.36 7.00 38.77 8.29 38.77 10.22C38.77 12.19 40.32 13.43 42.29 13.43C44.25 13.43 45.81 12.19 45.81 10.22C45.81 8.29 44.21 7.00 42.29 7.00Z"></path></g><!----><!----></svg>